<?xml version="1.0" encoding="UTF-8" standalone="no"?>
<!DOCTYPE svg PUBLIC "-//W3C//DTD SVG 1.1//EN"
 "http://www.w3.org/Graphics/SVG/1.1/DTD/svg11.dtd">
<!-- Generated by graphviz version 2.40.1 (20161225.0304)
 -->
<!-- Title: %3 Pages: 1 -->
<svg width="970pt" height="404pt"
 viewBox="0.00 0.00 969.76 404.00" xmlns="http://www.w3.org/2000/svg" xmlns:xlink="http://www.w3.org/1999/xlink">
<g id="graph0" class="graph" transform="scale(1 1) rotate(0) translate(4 400)">
<title>%3</title>
<polygon fill="#ffffff" stroke="transparent" points="-4,4 -4,-400 965.7602,-400 965.7602,4 -4,4"/>
<!-- [root] data.aws_instances.foo -->
<g id="node1" class="node">
<title>[root] data.aws_instances.foo</title>
<polygon fill="none" stroke="#000000" points="285.733,-108 140.5943,-108 140.5943,-72 285.733,-72 285.733,-108"/>
<text text-anchor="middle" x="213.1636" y="-85.8" font-family="Times,serif" font-size="14.00" fill="#000000">data.aws_instances.foo</text>
</g>
<!-- [root] provider.aws -->
<g id="node3" class="node">
<title>[root] provider.aws</title>
<polygon fill="none" stroke="#000000" points="213.1636,-36 134.5553,-18 213.1636,0 291.772,-18 213.1636,-36"/>
<text text-anchor="middle" x="213.1636" y="-13.8" font-family="Times,serif" font-size="14.00" fill="#000000">provider.aws</text>
</g>
<!-- [root] data.aws_instances.foo&#45;&gt;[root] provider.aws -->
<g id="edge1" class="edge">
<title>[root] data.aws_instances.foo&#45;&gt;[root] provider.aws</title>
<path fill="none" stroke="#000000" d="M213.1636,-71.8314C213.1636,-64.131 213.1636,-54.9743 213.1636,-46.4166"/>
<polygon fill="#000000" stroke="#000000" points="216.6637,-46.4132 213.1636,-36.4133 209.6637,-46.4133 216.6637,-46.4132"/>
</g>
<!-- [root] null_resource.foo -->
<g id="node2" class="node">
<title>[root] null_resource.foo</title>
<polygon fill="none" stroke="#000000" points="453.5197,-180 338.8076,-180 338.8076,-144 453.5197,-144 453.5197,-180"/>
<text text-anchor="middle" x="396.1636" y="-157.8" font-family="Times,serif" font-size="14.00" fill="#000000">null_resource.foo</text>
</g>
<!-- [root] null_resource.foo&#45;&gt;[root] data.aws_instances.foo -->
<g id="edge3" class="edge">
<title>[root] null_resource.foo&#45;&gt;[root] data.aws_instances.foo</title>
<path fill="none" stroke="#000000" d="M349.985,-143.8314C325.1835,-134.0734 294.4386,-121.977 268.3793,-111.7242"/>
<polygon fill="#000000" stroke="#000000" points="269.5973,-108.4423 259.0102,-108.038 267.0344,-114.9563 269.5973,-108.4423"/>
</g>
<!-- [root] provider.null -->
<g id="node4" class="node">
<title>[root] provider.null</title>
<polygon fill="none" stroke="#000000" points="396.1636,-108 317.5431,-90 396.1636,-72 474.7842,-90 396.1636,-108"/>
<text text-anchor="middle" x="396.1636" y="-85.8" font-family="Times,serif" font-size="14.00" fill="#000000">provider.null</text>
</g>
<!-- [root] null_resource.foo&#45;&gt;[root] provider.null -->
<g id="edge4" class="edge">
<title>[root] null_resource.foo&#45;&gt;[root] provider.null</title>
<path fill="none" stroke="#000000" d="M396.1636,-143.8314C396.1636,-136.131 396.1636,-126.9743 396.1636,-118.4166"/>
<polygon fill="#000000" stroke="#000000" points="399.6637,-118.4132 396.1636,-108.4133 392.6637,-118.4133 399.6637,-118.4132"/>
</g>
<!-- [root] meta.count&#45;boundary (count boundary fixup) -->
<g id="node5" class="node">
<title>[root] meta.count&#45;boundary (count boundary fixup)</title>
<ellipse fill="none" stroke="#000000" cx="770.1636" cy="-306" rx="191.6931" ry="18"/>
<text text-anchor="middle" x="770.1636" y="-301.8" font-family="Times,serif" font-size="14.00" fill="#000000">[root] meta.count&#45;boundary (count boundary fixup)</text>
</g>
<!-- [root] output.dump -->
<g id="node6" class="node">
<title>[root] output.dump</title>
<ellipse fill="none" stroke="#000000" cx="668.1636" cy="-234" rx="77.3175" ry="18"/>
<text text-anchor="middle" x="668.1636" y="-229.8" font-family="Times,serif" font-size="14.00" fill="#000000">[root] output.dump</text>
</g>
<!-- [root] meta.count&#45;boundary (count boundary fixup)&#45;&gt;[root] output.dump -->
<g id="edge2" class="edge">
<title>[root] meta.count&#45;boundary (count boundary fixup)&#45;&gt;[root] output.dump</title>
<path fill="none" stroke="#000000" d="M744.6879,-288.0171C731.4942,-278.7039 715.2299,-267.2233 701.0932,-257.2444"/>
<polygon fill="#000000" stroke="#000000" points="702.8005,-254.1654 692.6124,-251.258 698.7637,-259.8842 702.8005,-254.1654"/>
</g>
<!-- [root] output.dump&#45;&gt;[root] null_resource.foo -->
<g id="edge5" class="edge">
<title>[root] output.dump&#45;&gt;[root] null_resource.foo</title>
<path fill="none" stroke="#000000" d="M617.0025,-220.4574C573.6139,-208.9721 511.0436,-192.4094 463.5746,-179.8441"/>
<polygon fill="#000000" stroke="#000000" points="464.2495,-176.4022 453.6868,-177.2267 462.4582,-183.1692 464.2495,-176.4022"/>
</g>
<!-- [root] provider.aws (close) -->
<g id="node7" class="node">
<title>[root] provider.aws (close)</title>
<ellipse fill="none" stroke="#000000" cx="104.1636" cy="-234" rx="104.3276" ry="18"/>
<text text-anchor="middle" x="104.1636" y="-229.8" font-family="Times,serif" font-size="14.00" fill="#000000">[root] provider.aws (close)</text>
</g>
<!-- [root] provider.aws (close)&#45;&gt;[root] data.aws_instances.foo -->
<g id="edge6" class="edge">
<title>[root] provider.aws (close)&#45;&gt;[root] data.aws_instances.foo</title>
<path fill="none" stroke="#000000" d="M117.7482,-216.0535C136.7589,-190.9384 171.422,-145.1449 193.3227,-116.2119"/>
<polygon fill="#000000" stroke="#000000" points="196.1632,-118.2585 199.4079,-108.1727 190.5818,-114.0337 196.1632,-118.2585"/>
</g>
<!-- [root] provider.null (close) -->
<g id="node8" class="node">
<title>[root] provider.null (close)</title>
<ellipse fill="none" stroke="#000000" cx="330.1636" cy="-234" rx="104.3362" ry="18"/>
<text text-anchor="middle" x="330.1636" y="-229.8" font-family="Times,serif" font-size="14.00" fill="#000000">[root] provider.null (close)</text>
</g>
<!-- [root] provider.null (close)&#45;&gt;[root] null_resource.foo -->
<g id="edge7" class="edge">
<title>[root] provider.null (close)&#45;&gt;[root] null_resource.foo</title>
<path fill="none" stroke="#000000" d="M346.4783,-216.2022C354.3514,-207.6134 363.9441,-197.1486 372.5933,-187.7131"/>
<polygon fill="#000000" stroke="#000000" points="375.4011,-189.8297 379.5783,-180.0931 370.241,-185.0996 375.4011,-189.8297"/>
</g>
<!-- [root] provisioner.local&#45;exec (close) -->
<g id="node9" class="node">
<title>[root] provisioner.local&#45;exec (close)</title>
<ellipse fill="none" stroke="#000000" cx="423.1636" cy="-306" rx="137.1179" ry="18"/>
<text text-anchor="middle" x="423.1636" y="-301.8" font-family="Times,serif" font-size="14.00" fill="#000000">[root] provisioner.local&#45;exec (close)</text>
</g>
<!-- [root] provisioner.local&#45;exec (close)&#45;&gt;[root] null_resource.foo -->
<g id="edge8" class="edge">
<title>[root] provisioner.local&#45;exec (close)&#45;&gt;[root] null_resource.foo</title>
<path fill="none" stroke="#000000" d="M433.1137,-287.9878C441.9568,-269.5099 452.1959,-240.1352 443.1636,-216 439.2683,-205.5911 432.3596,-195.8652 425.018,-187.6152"/>
<polygon fill="#000000" stroke="#000000" points="427.3651,-185.0048 417.9308,-180.1835 422.2993,-189.8358 427.3651,-185.0048"/>
</g>
<!-- [root] root -->
<g id="node10" class="node">
<title>[root] root</title>
<ellipse fill="none" stroke="#000000" cx="340.1636" cy="-378" rx="46.8976" ry="18"/>
<text text-anchor="middle" x="340.1636" y="-373.8" font-family="Times,serif" font-size="14.00" fill="#000000">[root] root</text>
</g>
<!-- [root] root&#45;&gt;[root] meta.count&#45;boundary (count boundary fixup) -->
<g id="edge9" class="edge">
<title>[root] root&#45;&gt;[root] meta.count&#45;boundary (count boundary fixup)</title>
<path fill="none" stroke="#000000" d="M383.3625,-370.7667C448.9487,-359.7848 575.5721,-338.5828 666.0806,-323.4279"/>
<polygon fill="#000000" stroke="#000000" points="666.8173,-326.8533 676.102,-321.7499 665.6613,-319.9494 666.8173,-326.8533"/>
</g>
<!-- [root] root&#45;&gt;[root] provider.aws (close) -->
<g id="edge10" class="edge">
<title>[root] root&#45;&gt;[root] provider.aws (close)</title>
<path fill="none" stroke="#000000" d="M314.9075,-362.5895C273.2651,-337.1806 189.9937,-286.3709 141.523,-256.7956"/>
<polygon fill="#000000" stroke="#000000" points="143.2548,-253.7522 132.8954,-251.5312 139.6088,-259.7277 143.2548,-253.7522"/>
</g>
<!-- [root] root&#45;&gt;[root] provider.null (close) -->
<g id="edge11" class="edge">
<title>[root] root&#45;&gt;[root] provider.null (close)</title>
<path fill="none" stroke="#000000" d="M313.793,-363.1246C300.1283,-353.8295 284.7482,-340.4904 277.1636,-324 270.4779,-309.4638 271.1099,-302.8105 277.1636,-288 281.6997,-276.9026 289.7376,-266.8545 298.204,-258.5181"/>
<polygon fill="#000000" stroke="#000000" points="300.6831,-260.9933 305.6772,-251.6494 295.9462,-255.8395 300.6831,-260.9933"/>
</g>
<!-- [root] root&#45;&gt;[root] provisioner.local&#45;exec (close) -->
<g id="edge12" class="edge">
<title>[root] root&#45;&gt;[root] provisioner.local&#45;exec (close)</title>
<path fill="none" stroke="#000000" d="M359.4141,-361.3008C369.9197,-352.1875 383.1261,-340.7314 394.7902,-330.6131"/>
<polygon fill="#000000" stroke="#000000" points="397.3064,-333.0638 402.5668,-323.8671 392.7194,-327.7761 397.3064,-333.0638"/>
</g>
</g>
</svg>
